<mxfile host="app.diagrams.net" modified="2023-08-27T05:17:37.799Z" agent="Mozilla/5.0 (Windows NT 10.0; Win64; x64) AppleWebKit/537.36 (KHTML, like Gecko) Chrome/115.0.0.0 Safari/537.36" etag="7GdPps3GccBOUmKb7ZQm" version="21.6.9" type="device">
  <diagram name="Page-1" id="MBGqmfNPHNSeKV77uNF3">
    <mxGraphModel dx="2048" dy="737" grid="1" gridSize="10" guides="1" tooltips="1" connect="1" arrows="1" fold="1" page="1" pageScale="1" pageWidth="827" pageHeight="1169" math="0" shadow="0">
      <root>
        <mxCell id="0" />
        <mxCell id="1" parent="0" />
        <mxCell id="smmiEtzyFUiKkL1P5M1r-1" value="" style="rounded=1;whiteSpace=wrap;html=1;" parent="1" vertex="1">
          <mxGeometry x="-140" y="170" width="190" height="320" as="geometry" />
        </mxCell>
        <mxCell id="smmiEtzyFUiKkL1P5M1r-2" value="" style="rounded=1;whiteSpace=wrap;html=1;" parent="1" vertex="1">
          <mxGeometry x="224" y="220" width="190" height="200" as="geometry" />
        </mxCell>
        <mxCell id="smmiEtzyFUiKkL1P5M1r-3" value="" style="rounded=1;whiteSpace=wrap;html=1;" parent="1" vertex="1">
          <mxGeometry x="530" y="160" width="190" height="320" as="geometry" />
        </mxCell>
        <mxCell id="smmiEtzyFUiKkL1P5M1r-4" value="" style="rounded=1;whiteSpace=wrap;html=1;" parent="1" vertex="1">
          <mxGeometry x="790" y="155" width="190" height="320" as="geometry" />
        </mxCell>
        <mxCell id="smmiEtzyFUiKkL1P5M1r-5" value="Source" style="text;html=1;strokeColor=none;fillColor=none;align=center;verticalAlign=middle;whiteSpace=wrap;rounded=0;fontStyle=1" parent="1" vertex="1">
          <mxGeometry x="-85" y="120" width="80" height="30" as="geometry" />
        </mxCell>
        <mxCell id="smmiEtzyFUiKkL1P5M1r-6" value="Extract" style="text;html=1;strokeColor=none;fillColor=none;align=center;verticalAlign=middle;whiteSpace=wrap;rounded=0;fontStyle=1" parent="1" vertex="1">
          <mxGeometry x="70" y="290" width="80" height="30" as="geometry" />
        </mxCell>
        <mxCell id="smmiEtzyFUiKkL1P5M1r-7" value="Load" style="text;html=1;strokeColor=none;fillColor=none;align=center;verticalAlign=middle;whiteSpace=wrap;rounded=0;fontStyle=1" parent="1" vertex="1">
          <mxGeometry x="250" y="130" width="80" height="30" as="geometry" />
        </mxCell>
        <mxCell id="smmiEtzyFUiKkL1P5M1r-8" value="Transform" style="text;html=1;strokeColor=none;fillColor=none;align=center;verticalAlign=middle;whiteSpace=wrap;rounded=0;fontStyle=1" parent="1" vertex="1">
          <mxGeometry x="430" y="290" width="80" height="30" as="geometry" />
        </mxCell>
        <mxCell id="smmiEtzyFUiKkL1P5M1r-9" value="Analytics" style="text;html=1;strokeColor=none;fillColor=none;align=center;verticalAlign=middle;whiteSpace=wrap;rounded=0;fontStyle=1" parent="1" vertex="1">
          <mxGeometry x="845" y="250" width="80" height="30" as="geometry" />
        </mxCell>
        <mxCell id="smmiEtzyFUiKkL1P5M1r-13" value="Data Warehouse (Staging)" style="text;html=1;strokeColor=none;fillColor=none;align=center;verticalAlign=middle;whiteSpace=wrap;rounded=0;fontStyle=1" parent="1" vertex="1">
          <mxGeometry x="290" y="320" width="80" height="30" as="geometry" />
        </mxCell>
        <mxCell id="smmiEtzyFUiKkL1P5M1r-14" value="Data Warehouse&amp;nbsp;" style="text;html=1;strokeColor=none;fillColor=none;align=center;verticalAlign=middle;whiteSpace=wrap;rounded=0;fontStyle=1" parent="1" vertex="1">
          <mxGeometry x="595" y="320" width="80" height="30" as="geometry" />
        </mxCell>
        <mxCell id="RoQCE2eXo_YY6Cx4icfB-1" value="" style="shape=datastore;whiteSpace=wrap;html=1;" vertex="1" parent="1">
          <mxGeometry x="310" y="235" width="60" height="60" as="geometry" />
        </mxCell>
        <mxCell id="RoQCE2eXo_YY6Cx4icfB-2" value="" style="shape=datastore;whiteSpace=wrap;html=1;" vertex="1" parent="1">
          <mxGeometry x="595" y="200" width="60" height="60" as="geometry" />
        </mxCell>
      </root>
    </mxGraphModel>
  </diagram>
</mxfile>
